<svg id="visual" viewBox="0 0 900 600" width="900" height="600" xmlns="http://www.w3.org/2000/svg" xmlns:xlink="http://www.w3.org/1999/xlink" version="1.1"><rect x="0" y="0" width="900" height="600" fill="#ffffff"></rect><path d="M0 411L21.5 407.3C43 403.7 86 396.3 128.8 386.2C171.7 376 214.3 363 257.2 363.3C300 363.7 343 377.3 385.8 383C428.7 388.7 471.3 386.3 514.2 384.7C557 383 600 382 642.8 388.7C685.7 395.3 728.3 409.7 771.2 418.5C814 427.3 857 430.7 878.5 432.3L900 434L900 601L878.5 601C857 601 814 601 771.2 601C728.3 601 685.7 601 642.8 601C600 601 557 601 514.2 601C471.3 601 428.7 601 385.8 601C343 601 300 601 257.2 601C214.3 601 171.7 601 128.8 601C86 601 43 601 21.5 601L0 601Z" fill="#4f772d"></path><path d="M0 447L21.5 447.5C43 448 86 449 128.8 454.3C171.7 459.7 214.3 469.3 257.2 474.2C300 479 343 479 385.8 473.7C428.7 468.3 471.3 457.7 514.2 449C557 440.3 600 433.7 642.8 433.8C685.7 434 728.3 441 771.2 449.5C814 458 857 468 878.5 473L900 478L900 601L878.5 601C857 601 814 601 771.2 601C728.3 601 685.7 601 642.8 601C600 601 557 601 514.2 601C471.3 601 428.7 601 385.8 601C343 601 300 601 257.2 601C214.3 601 171.7 601 128.8 601C86 601 43 601 21.5 601L0 601Z" fill="#476f2d"></path><path d="M0 488L21.5 483C43 478 86 468 128.8 461.2C171.7 454.3 214.3 450.7 257.2 452C300 453.3 343 459.7 385.8 463.7C428.7 467.7 471.3 469.3 514.2 465.7C557 462 600 453 642.8 452.7C685.7 452.3 728.3 460.7 771.2 465C814 469.3 857 469.7 878.5 469.8L900 470L900 601L878.5 601C857 601 814 601 771.2 601C728.3 601 685.7 601 642.8 601C600 601 557 601 514.2 601C471.3 601 428.7 601 385.8 601C343 601 300 601 257.2 601C214.3 601 171.7 601 128.8 601C86 601 43 601 21.5 601L0 601Z" fill="#3f672d"></path><path d="M0 503L21.5 502.5C43 502 86 501 128.8 502C171.7 503 214.3 506 257.2 504.8C300 503.7 343 498.3 385.8 500.2C428.7 502 471.3 511 514.2 512.5C557 514 600 508 642.8 507.7C685.7 507.3 728.3 512.7 771.2 513C814 513.3 857 508.7 878.5 506.3L900 504L900 601L878.5 601C857 601 814 601 771.2 601C728.3 601 685.7 601 642.8 601C600 601 557 601 514.2 601C471.3 601 428.7 601 385.8 601C343 601 300 601 257.2 601C214.3 601 171.7 601 128.8 601C86 601 43 601 21.5 601L0 601Z" fill="#385f2d"></path><path d="M0 551L21.5 552.2C43 553.3 86 555.7 128.8 551.3C171.7 547 214.3 536 257.2 530.8C300 525.7 343 526.3 385.8 526.5C428.7 526.7 471.3 526.3 514.2 530.7C557 535 600 544 642.8 551.7C685.7 559.3 728.3 565.7 771.2 567C814 568.3 857 564.7 878.5 562.8L900 561L900 601L878.5 601C857 601 814 601 771.2 601C728.3 601 685.7 601 642.8 601C600 601 557 601 514.2 601C471.3 601 428.7 601 385.8 601C343 601 300 601 257.2 601C214.3 601 171.7 601 128.8 601C86 601 43 601 21.5 601L0 601Z" fill="#31572c"></path></svg>