<svg id="visual" viewBox="0 0 900 600" width="900" height="600" xmlns="http://www.w3.org/2000/svg" xmlns:xlink="http://www.w3.org/1999/xlink" version="1.1"><rect x="0" y="0" width="900" height="600" fill="#ffffff"></rect><path d="M0 187L21.5 190.7C43 194.3 86 201.7 128.8 211.8C171.7 222 214.3 235 257.2 234.7C300 234.3 343 220.7 385.8 215C428.7 209.3 471.3 211.7 514.2 213.3C557 215 600 216 642.8 209.3C685.7 202.7 728.3 188.3 771.2 179.5C814 170.7 857 167.3 878.5 165.7L900 164L900 0L878.5 0C857 0 814 0 771.2 0C728.3 0 685.7 0 642.8 0C600 0 557 0 514.2 0C471.3 0 428.7 0 385.8 0C343 0 300 0 257.2 0C214.3 0 171.7 0 128.8 0C86 0 43 0 21.5 0L0 0Z" fill="#4f772d"></path><path d="M0 151L21.5 150.5C43 150 86 149 128.8 143.7C171.7 138.3 214.3 128.7 257.2 123.8C300 119 343 119 385.8 124.3C428.7 129.7 471.3 140.3 514.2 149C557 157.7 600 164.3 642.8 164.2C685.7 164 728.3 157 771.2 148.5C814 140 857 130 878.5 125L900 120L900 0L878.5 0C857 0 814 0 771.2 0C728.3 0 685.7 0 642.8 0C600 0 557 0 514.2 0C471.3 0 428.7 0 385.8 0C343 0 300 0 257.2 0C214.3 0 171.7 0 128.8 0C86 0 43 0 21.5 0L0 0Z" fill="#476f2d"></path><path d="M0 110L21.5 115C43 120 86 130 128.8 136.8C171.7 143.7 214.3 147.3 257.2 146C300 144.7 343 138.3 385.8 134.3C428.7 130.3 471.3 128.7 514.2 132.3C557 136 600 145 642.8 145.3C685.7 145.7 728.3 137.3 771.2 133C814 128.7 857 128.3 878.5 128.2L900 128L900 0L878.5 0C857 0 814 0 771.2 0C728.3 0 685.7 0 642.8 0C600 0 557 0 514.2 0C471.3 0 428.7 0 385.8 0C343 0 300 0 257.2 0C214.3 0 171.7 0 128.8 0C86 0 43 0 21.5 0L0 0Z" fill="#3f672d"></path><path d="M0 95L21.5 95.5C43 96 86 97 128.8 96C171.7 95 214.3 92 257.2 93.2C300 94.3 343 99.7 385.8 97.8C428.7 96 471.3 87 514.2 85.5C557 84 600 90 642.8 90.3C685.7 90.7 728.3 85.3 771.2 85C814 84.7 857 89.3 878.5 91.7L900 94L900 0L878.5 0C857 0 814 0 771.2 0C728.3 0 685.7 0 642.8 0C600 0 557 0 514.2 0C471.3 0 428.7 0 385.8 0C343 0 300 0 257.2 0C214.3 0 171.7 0 128.8 0C86 0 43 0 21.5 0L0 0Z" fill="#385f2d"></path><path d="M0 47L21.5 45.8C43 44.7 86 42.3 128.8 46.7C171.7 51 214.3 62 257.2 67.2C300 72.3 343 71.7 385.8 71.5C428.7 71.3 471.3 71.7 514.2 67.3C557 63 600 54 642.8 46.3C685.7 38.7 728.3 32.3 771.2 31C814 29.7 857 33.3 878.5 35.2L900 37L900 0L878.5 0C857 0 814 0 771.2 0C728.3 0 685.7 0 642.8 0C600 0 557 0 514.2 0C471.3 0 428.7 0 385.8 0C343 0 300 0 257.2 0C214.3 0 171.7 0 128.8 0C86 0 43 0 21.5 0L0 0Z" fill="#31572c"></path></svg>